<?xml version="1.0" encoding="UTF-8" standalone="no"?>
<svg
   xmlns:dc="http://purl.org/dc/elements/1.1/"
   xmlns:cc="http://creativecommons.org/ns#"
   xmlns:rdf="http://www.w3.org/1999/02/22-rdf-syntax-ns#"
   xmlns:svg="http://www.w3.org/2000/svg"
   xmlns="http://www.w3.org/2000/svg"
   xmlns:sodipodi="http://sodipodi.sourceforge.net/DTD/sodipodi-0.dtd"
   xmlns:inkscape="http://www.inkscape.org/namespaces/inkscape"
   version="1.1"
   width="192.0256"
   height="192.0256"
   viewBox="0 0 192.0256 192.0256"
   style="overflow:visible"
   xml:space="preserve"
   id="svg2"
   inkscape:version="0.48.4 r9939"
   sodipodi:docname="Microsoft_Word_doc_Logo.svg"><metadata
   id="metadata10"><rdf:RDF><cc:Work
       rdf:about=""><dc:format>image/svg+xml</dc:format><dc:type
         rdf:resource="http://purl.org/dc/dcmitype/StillImage" /></cc:Work></rdf:RDF></metadata><defs
   id="defs8" /><sodipodi:namedview
   pagecolor="#ffffff"
   bordercolor="#666666"
   borderopacity="1"
   objecttolerance="10"
   gridtolerance="10"
   guidetolerance="10"
   inkscape:pageopacity="0"
   inkscape:pageshadow="2"
   inkscape:window-width="1366"
   inkscape:window-height="705"
   id="namedview6"
   showgrid="false"
   fit-margin-top="0"
   fit-margin-left="0"
   fit-margin-right="0"
   fit-margin-bottom="0"
   inkscape:zoom="3.4761376"
   inkscape:cx="173.89021"
   inkscape:cy="70.301696"
   inkscape:window-x="-8"
   inkscape:window-y="-8"
   inkscape:window-maximized="1"
   inkscape:current-layer="svg2" />
<g
   id="g2987"><path
     style="fill:#fefefe"
     d="M 0,96.0128 0,0 l 96.0128,0 96.0128,0 0,96.0128 0,96.0128 -96.0128,0 -96.0128,0 0,-96.0128 z"
     id="path2993"
     inkscape:connector-curvature="0" /><path
     style="fill:#999898"
     d="m 42.0056,168.0224 0,-10.5014 -21.0028,0 -21.0028,0 0,-45.006 0,-45.006 21.0028,0 21.0028,0 0,-27.37865 0,-27.37865 44.449051,0 44.449049,0 18.55935,18.570492 18.55935,18.570492 0,64.315566 0,64.31555 -63.0084,0 -63.0084,0 0,-10.5014 z m 123.7665,-54.0072 0,-62.2583 -54.0072,0 -54.0072,0 0,-3.37545 0,-3.37545 35.62975,0 35.62975,0 0,-4.5006 0,-4.5006 -35.62975,0 -35.62975,0 0,-3.37545 0,-3.37545 35.62975,0 35.62975,0 0,-7.12595 0,-7.12595 -42.38065,0 -42.38065,0 0,26.2535 0,26.2535 6.7509,0 6.7509,0 0,-3.37545 0,-3.37545 47.2563,0 47.2563,0 0,3.37545 0,3.37545 -31.12915,0 -31.12915,0 0,4.5006 0,4.5006 31.12915,0 31.12915,0 0,3.37545 0,3.37545 -31.12915,0 -31.12915,0 0,4.5006 0,4.5006 31.12915,0 31.12915,0 0,3.37545 0,3.37545 -31.12915,0 -31.12915,0 0,4.5006 0,4.5006 31.12915,0 31.12915,0 0,3.37545 0,3.37545 -31.12915,0 -31.12915,0 0,4.5006 0,4.5006 31.12915,0 31.12915,0 0,3.37545 0,3.37545 -31.12915,0 -31.12915,0 0,4.5006 0,4.5006 31.12915,0 31.12915,0 0,3.37545 0,3.37545 -31.12915,0 -31.12915,0 0,4.5006 0,4.5006 31.12915,0 31.12915,0 0,3.37545 0,3.37545 -47.2563,0 -47.2563,0 0,-2.2503 0,-2.2503 -6.7509,0 -6.7509,0 0,9.37625 0,9.37625 60.7581,0 60.7581,0 0,-62.2583 z m -82.511,9.32408 0,-27.430819 -1.645502,0.239695 C 80.291927,96.340969 77.687857,100.7495 68.30132,118.68841 l -11.66877,22.30056 -6.91783,0.0149 -6.91783,0.0149 -0.20812,-10.57073 -0.20812,-10.57073 -6.0008,10.56518 -6.0008,10.56518 -6.188325,0.005 -6.188325,0.006 0,-22.503 0,-22.503 -3.0004,0 -3.0004,0 0,-4.5006 0,-4.5006 13.5018,0 13.5018,0 0,4.5006 0,4.5006 -3.37545,0 -3.37545,0 0.05327,7.68852 0.05327,7.68853 5.897482,-12.189125 5.897482,-12.189125 6.425893,0 6.425892,0 0.01231,12.564175 0.01231,12.564175 4.206305,-7.12595 c 5.464931,-9.258199 5.39069,-9.0012 2.600226,-9.0012 l -2.330543,0 0,-4.5006 0,-4.5006 10.87645,0 10.87645,0 0,-6.37585 0,-6.37585 -38.2551,0 -38.2551,0 0,38.2551 0,38.2551 38.2551,0 38.2551,0 0,-27.43082 z M 165.022,49.312824 c 0,-0.106578 -7.59476,-7.782913 -16.87725,-17.058524 l -16.87725,-16.864747 0,17.058523 0,17.058524 16.87725,0 c 9.28249,0 16.87725,-0.0872 16.87725,-0.193776 z"
     id="path2991"
     inkscape:connector-curvature="0" /><path
     style="fill:#295595"
     d="m 0,112.515 0,-45.006 45.006,0 45.006,0 0,45.006 0,45.006 -45.006,0 -45.006,0 z m 83.2611,10.87645 0,-27.37865 -1.737914,0 c -1.515682,0 -3.235842,2.853425 -13.452633,22.31548 l -11.714724,22.31547 -6.779852,0.21541 -6.779853,0.2154 -0.207737,-10.84077 -0.207737,-10.84076 -6.234458,10.81288 -6.234459,10.81289 -5.954666,0 -5.954667,0 0,-22.503 0,-22.503 -3.0004,0 -3.0004,0 0,-4.5006 0,-4.5006 13.5018,0 13.5018,0 0,4.5006 0,4.5006 -3.37545,0 -3.37545,0 0.062,8.06358 0.062,8.06357 6.065788,-12.564175 6.065789,-12.564175 6.248866,0 6.248867,0 0.0093,12.939225 0.0093,12.939225 4.833712,-8.2511 4.833712,-8.2511 -2.592752,-0.232809 -2.592751,-0.232801 0,-4.455324 0,-4.455316 10.87645,0 10.87645,0 0,-6.37585 0,-6.37585 -38.2551,0 -38.2551,0 0,38.2551 0,38.2551 38.2551,0 38.2551,0 0,-27.37865 z"
     id="path2989"
     inkscape:connector-curvature="0"
     sodipodi:nodetypes="cccccccccccssccccccccccccccccccccccccccccccccccccccccccccccc" /></g>
</svg>